<svg xmlns="http://www.w3.org/2000/svg" width="232.91" height="100.26" viewBox="0 0 232.91 100.26">
  <g id="Ebene_2" data-name="Ebene 2">
    <g id="Ebene_1-2" data-name="Ebene 1">
      <g>
        <rect width="232.91" height="100.26" style="fill: #fff;opacity: 0"/>
        <g>
          <g>
            <path d="M55.8,60.06a10.75,10.75,0,0,1,8.75-1.66,6.77,6.77,0,0,0-4.83-2.07,7.79,7.79,0,0,0-3.95,1.14c-3.05,1.81-5.47,5.73-4.55,9.82A10.81,10.81,0,0,1,55.8,60.06Z" style="fill: #066be2"/>
            <path d="M76.61,74.42a10.61,10.61,0,0,1-8.3,1.9,10.86,10.86,0,0,1-7.44-5,7,7,0,0,0,5.62,6.88C69.91,79,74.39,78,76.61,74.42Z" style="fill: #066be2"/>
            <path d="M67.27,79.94A11,11,0,0,1,60,75.24a10.55,10.55,0,0,1-1.6-8.65,6.84,6.84,0,0,0-1,8.73C59.22,78.38,63.16,80.83,67.27,79.94Z" style="fill: #066be2"/>
            <path d="M56.21,76.46a14.22,14.22,0,0,1-1-9.49,9.05,9.05,0,0,1,4.48-5.89A6.87,6.87,0,0,0,53,66.33C52,69.61,52.86,74.08,56.21,76.46Z" style="fill: #066be2"/>
            <path d="M63.82,51.27a11.55,11.55,0,0,1,7.2,5,10.13,10.13,0,0,1,1.53,8.33,6.82,6.82,0,0,0,.94-8.65C71.73,52.9,67.86,50.43,63.82,51.27Z" style="fill: #066be2"/>
            <path d="M74.65,71.29a10.08,10.08,0,0,1-8.31,1.55,7,7,0,0,0,8.83.89c3.11-1.89,5.54-6,4.44-10.15A11.51,11.51,0,0,1,74.65,71.29Z" style="fill: #066be2"/>
            <path d="M74.63,54.54a14.87,14.87,0,0,1,.94,9.7,9.12,9.12,0,0,1-4.47,5.88,6.92,6.92,0,0,0,6.72-5.31C78.82,61.48,78,57,74.63,54.54Z" style="fill: #066be2"/>
            <path d="M62.55,54.88a10.58,10.58,0,0,1,7.27,5A7,7,0,0,0,64.32,53c-3.43-.89-8,.15-10.22,3.7a10.83,10.83,0,0,1,6.37-2A11.26,11.26,0,0,1,62.55,54.88Z" style="fill: #066be2"/>
            <g>
              <path d="M75,29.08a10.17,10.17,0,0,0-8.33-1.53,6.76,6.76,0,0,1,4.78-2.06,7.75,7.75,0,0,1,3.87,1.12c3,1.76,5.51,5.62,4.67,9.67A11.53,11.53,0,0,0,75,29.08Z" style="fill: #066be2"/>
              <path d="M56.88,23.49a10.55,10.55,0,0,0-1.9,8.3,10.83,10.83,0,0,0,5,7.44,7,7,0,0,1-6.89-5.62C52.27,30.19,53.34,25.71,56.88,23.49Z" style="fill: #066be2"/>
              <path d="M76.76,25.48a14.3,14.3,0,0,0-6.29-1.37,13.33,13.33,0,0,0-3.41.42A9.12,9.12,0,0,0,61.18,29a6.92,6.92,0,0,1,5.31-6.72C69.81,21.28,74.35,22.11,76.76,25.48Z" style="fill: #066be2"/>
              <path d="M74.58,46a11,11,0,0,0,1.84-8.45,10.56,10.56,0,0,0-5-7.27,7,7,0,0,1,6.84,5.5C79.17,39.22,78.13,43.74,74.58,46Z" style="fill: #066be2"/>
              <path d="M64,48.88A11,11,0,0,0,72.9,35.54a7,7,0,0,1,.93,8.79C72,47.37,68.1,49.8,64,48.88Z" style="fill: #066be2"/>
              <path d="M64.33,44.89a9.05,9.05,0,0,0,5.89-4.48A6.87,6.87,0,0,1,65,47.11c-3.27,1-7.75.13-10.13-3.22A14.23,14.23,0,0,0,64.33,44.89Z" style="fill: #066be2"/>
              <path d="M51.36,32.83a11,11,0,0,0,4.7,7.29,10.59,10.59,0,0,0,8.65,1.6,6.85,6.85,0,0,1-8.74,1C52.92,40.88,50.46,36.94,51.36,32.83Z" style="fill: #066be2"/>
              <path d="M67.71,20.49a11.34,11.34,0,0,0-7.7,5,10.11,10.11,0,0,0-1.55,8.3,6.94,6.94,0,0,1-.89-8.82C59.46,21.82,63.52,19.4,67.71,20.49Z" style="fill: #066be2"/>
            </g>
            <path d="M25.28,29a10.11,10.11,0,0,1,8.3-1.55,6.75,6.75,0,0,0-4.82-2.06,7.77,7.77,0,0,0-4,1.17c-3.11,1.89-5.54,6-4.44,10.15A11.51,11.51,0,0,1,25.28,29Z" style="fill: #066be2"/>
            <path d="M44.13,40.21a10.8,10.8,0,0,1-8.76,1.66,7,7,0,0,0,8.79.93C47.21,41,49.63,37.07,48.71,33A10.81,10.81,0,0,1,44.13,40.21Z" style="fill: #066be2"/>
            <path d="M32.66,20.33A11,11,0,0,1,40,25a10.55,10.55,0,0,1,1.6,8.65,6.85,6.85,0,0,0,1-8.74C40.71,21.89,36.77,19.43,32.66,20.33Z" style="fill: #066be2"/>
            <path d="M43.72,23.81a14.22,14.22,0,0,1,1,9.49,9.05,9.05,0,0,1-4.48,5.89,6.87,6.87,0,0,0,6.7-5.25C47.91,30.66,47.07,26.19,43.72,23.81Z" style="fill: #066be2"/>
            <path d="M28.91,44a10.13,10.13,0,0,1-1.53-8.33,6.82,6.82,0,0,0-.94,8.65c1.76,3,5.63,5.51,9.67,4.67A11.53,11.53,0,0,1,28.91,44Z" style="fill: #066be2"/>
            <path d="M25.3,45.73a14.88,14.88,0,0,1-.94-9.7,9.12,9.12,0,0,1,4.47-5.88,6.92,6.92,0,0,0-6.72,5.3C21.11,38.79,21.94,43.32,25.3,45.73Z" style="fill: #066be2"/>
            <g>
              <path d="M43.05,76.78a10.55,10.55,0,0,0,1.9-8.3,10.83,10.83,0,0,0-5-7.44,7,7,0,0,1,6.88,5.62C47.66,70.08,46.59,74.56,43.05,76.78Z" style="fill: #066be2"/>
              <path d="M43.87,60.15a10.55,10.55,0,0,0-8.65-1.6,6.85,6.85,0,0,1,4.84-2.1A7.72,7.72,0,0,1,44,57.59c3,1.8,5.51,5.74,4.61,9.85A11,11,0,0,0,43.87,60.15Z" style="fill: #066be2"/>
              <path d="M32.22,79.78a11.36,11.36,0,0,0,7.7-5,10.14,10.14,0,0,0,1.55-8.31,6.94,6.94,0,0,1,.89,8.82C40.47,78.45,36.39,80.87,32.22,79.78Z" style="fill: #066be2"/>
              <path d="M24.89,71.19a10.13,10.13,0,0,0,8.33,1.53,6.82,6.82,0,0,1-8.65.94C21.53,71.9,19.06,68,19.9,64A11.53,11.53,0,0,0,24.89,71.19Z" style="fill: #066be2"/>
              <path d="M23.17,74.79a14.8,14.8,0,0,0,9.7.95,9.09,9.09,0,0,0,5.88-4.47A6.92,6.92,0,0,1,33.44,78C30.12,79,25.58,78.16,23.17,74.79Z" style="fill: #066be2"/>
              <path d="M35.92,51.39A11,11,0,0,0,27,64.73a7,7,0,0,1-.93-8.79C27.91,52.89,31.84,50.46,35.92,51.39Z" style="fill: #066be2"/>
              <path d="M25.35,54.27a11,11,0,0,0-1.84,8.45,10.58,10.58,0,0,0,5,7.27,7,7,0,0,1-6.84-5.5C20.75,61.05,21.8,56.53,25.35,54.27Z" style="fill: #066be2"/>
              <path d="M35.59,55.38a9.06,9.06,0,0,0-5.88,4.48A6.87,6.87,0,0,1,35,53.16c3.28-1,7.75-.13,10.13,3.21A13.79,13.79,0,0,0,38.89,55,13.19,13.19,0,0,0,35.59,55.38Z" style="fill: #066be2"/>
            </g>
            <path d="M37.38,45.39a10.58,10.58,0,0,1-7.27-5,7,7,0,0,0,5.5,6.84c3.43.89,8-.15,10.22-3.7A11,11,0,0,1,37.38,45.39Z" style="fill: #066be2"/>
            <path d="M31.62,24a10.86,10.86,0,0,1,7.44,5,7,7,0,0,0-5.62-6.88c-3.42-.86-7.9.22-10.12,3.75a10.38,10.38,0,0,1,6.3-2.08A11.35,11.35,0,0,1,31.62,24Z" style="fill: #066be2"/>
          </g>
          <g>
            <path d="M118.41,37.39a1.35,1.35,0,0,1,2.61.48,2,2,0,0,1-.12.59l-9.27,24.45a1.34,1.34,0,0,1-2.54,0L99.82,38.46a2,2,0,0,1-.12-.59,1.34,1.34,0,0,1,1.35-1.35,1.36,1.36,0,0,1,1.27.87l8,21.32Z" style="fill: #066be2"/>
            <path d="M138,54.47C138,61,134.85,64,129.7,64s-8.32-3-8.32-9.55S124.58,45,129.7,45,138,48,138,54.47Zm-2.58,0c0-5-2.1-7.21-5.74-7.21S124,49.48,124,54.47s2.1,7.25,5.75,7.25S135.44,59.54,135.44,54.47Z" style="fill: #066be2"/>
            <path d="M144.32,36.56V59.18c0,1.59.51,2.26,1.58,2.26a1.19,1.19,0,0,1,0,2.38c-2.65,0-4.12-1.58-4.12-4.64V36.56a1.31,1.31,0,0,1,1.27-1.27A1.28,1.28,0,0,1,144.32,36.56Z" style="fill: #066be2"/>
            <path d="M152.48,49.36a1.32,1.32,0,0,1-1,.55,1.14,1.14,0,0,1-1.15-1.15,1.23,1.23,0,0,1,.2-.67c1.1-1.74,3.25-3.13,6.57-3.13,4.6,0,7.13,2.69,7.13,6.74V62.59a1.23,1.23,0,1,1-2.45,0V61.16c-1,1.87-3.29,2.86-5.67,2.86-4.2,0-6.85-2-6.85-5.67,0-3.48,2.65-5.59,6.93-5.59h5.59V51.7c0-2.7-1.79-4.36-4.68-4.36A5.46,5.46,0,0,0,152.48,49.36Zm9.27,7.29V55h-5.59c-2.57,0-4.36,1.07-4.36,3.37,0,2.06,1.43,3.37,4.52,3.37C159.09,61.72,161.75,60,161.75,56.65Z" style="fill: #066be2"/>
            <path d="M170,41.35a1.3,1.3,0,0,1,1.27-1.26,1.27,1.27,0,0,1,1.26,1.26v4.16h2.58a1.19,1.19,0,0,1,0,2.38h-2.58V58.83c0,1.7,1,2.61,2.3,2.61a1.19,1.19,0,1,1,0,2.38c-3.13,0-4.83-2.1-4.83-5V47.89H168.4a1.19,1.19,0,1,1,0-2.38H170Z" style="fill: #066be2"/>
            <path d="M187,45c6.35,0,7.57,5,7.57,7.73,0,1.14,0,2.53-1.58,2.53H181.4c0,3.92,2.26,6.46,6,6.46a7.32,7.32,0,0,0,4.76-1.7,1.07,1.07,0,0,1,.71-.24A1.15,1.15,0,0,1,194,60.89a1.19,1.19,0,0,1-.44.91A8.82,8.82,0,0,1,187.38,64c-5.27,0-8.56-2.9-8.56-9.55C178.82,48.37,181.83,45,187,45Zm0,2.3c-3.44,0-5.34,2.22-5.58,5.74h10.66C192.06,50.15,191.07,47.26,187,47.26Z" style="fill: #066be2"/>
            <path d="M197.28,54.51c0-6.5,3-9.55,8.13-9.55,4.51,0,7.76,2.57,7.76,7.8V70.2a1.27,1.27,0,1,1-2.53,0V61.44A6.72,6.72,0,0,1,205.25,64C200.14,64,197.28,61,197.28,54.51Zm13.36-1.75c0-3.76-2.18-5.5-5.23-5.5-3.65,0-5.59,2.29-5.59,7.25s2,7.21,5.59,7.21a6,6,0,0,0,5.23-3.49Z" style="fill: #066be2"/>
          </g>
        </g>
      </g>
    </g>
  </g>
</svg>
